<?xml version="1.0" encoding="UTF-8"?>
<svg version="1.1" xmlns="http://www.w3.org/2000/svg" width="280" height="280">
<path d="M0 0 C3.88738552 0.12167932 7.74977866 0.08247572 11.63818359 0.02392578 C30.55304744 0.07835341 30.55304744 0.07835341 35.01147461 4.55493164 C37.13331131 7.96208942 38.43414961 11.21381634 39.75927734 14.99658203 C41.01104824 17.24677374 42.30716621 19.47285705 43.64599609 21.67236328 C44.91488269 23.88347952 46.18181276 26.0957197 47.44677734 28.30908203 C48.72010429 30.53515108 49.99481201 32.76043097 51.27099609 34.98486328 C51.86187012 36.0220752 52.45274414 37.05928711 53.06152344 38.12792969 C54.56124359 40.66196935 56.16669246 43.05778301 57.84130859 45.47705078 C59.81938838 48.63869872 59.81938838 48.63869872 59.33740234 51.50830078 C58.81662109 52.32943359 58.29583984 53.15056641 57.75927734 53.99658203 C57.12428591 55.18805561 56.49460035 56.38236393 55.86865234 57.57861328 C55.08605 58.99091315 54.2993136 60.40092718 53.50927734 61.80908203 C53.08324219 62.5722876 52.65720703 63.33549316 52.21826172 64.12182617 C37.37337413 90.57543685 37.37337413 90.57543685 31.75927734 98.99658203 C29.47113037 99.41790771 29.47113037 99.41790771 26.57861328 99.47998047 C24.95617706 99.52321442 24.95617706 99.52321442 23.30096436 99.56732178 C22.12705139 99.58007141 20.95313843 99.59282104 19.74365234 99.60595703 C18.53992981 99.62305725 17.33620728 99.64015747 16.0960083 99.65777588 C13.54390398 99.68615876 10.99168916 99.70574093 8.43945312 99.71728516 C4.53758994 99.74637098 0.6404924 99.83936301 -3.26025391 99.93408203 C-5.73809028 99.95367585 -8.21596064 99.96942582 -10.69384766 99.98095703 C-11.8596637 100.01799744 -13.02547974 100.05503784 -14.22662354 100.09320068 C-22.13783964 100.02810757 -22.13783964 100.02810757 -25.22315979 97.14241028 C-26.79278144 94.82764896 -28.03866954 92.51924665 -29.24072266 89.99658203 C-29.88323975 88.93463623 -30.52575684 87.87269043 -31.18774414 86.77856445 C-31.74018799 85.81281494 -32.29263184 84.84706543 -32.86181641 83.85205078 C-33.48765625 82.76214844 -34.11349609 81.67224609 -34.75830078 80.54931641 C-35.391875 79.43878906 -36.02544922 78.32826172 -36.67822266 77.18408203 C-37.94746761 74.9690742 -39.21699758 72.75422967 -40.48681641 70.53955078 C-41.10153809 69.45722168 -41.71625977 68.37489258 -42.34960938 67.25976562 C-43.63371994 65.04398693 -44.95464185 62.84921792 -46.30761719 60.67480469 C-46.95714355 59.62212402 -47.60666992 58.56944336 -48.27587891 57.48486328 C-48.86892822 56.54811768 -49.46197754 55.61137207 -50.07299805 54.64624023 C-51.48838806 51.43460992 -51.39171191 50.27902116 -50.24072266 46.99658203 C-49.22771827 44.9556327 -48.13638859 42.9527676 -46.99462891 40.98095703 C-46.66462387 40.40686096 -46.33461884 39.83276489 -45.99461365 39.24127197 C-44.93734773 37.40584483 -43.87044042 35.57623664 -42.80322266 33.74658203 C-41.77725694 31.96924945 -40.75323002 30.19086216 -39.73254395 28.41049194 C-39.02566511 27.19612667 -38.30402478 25.99024757 -37.56872559 24.7928772 C-35.49702687 21.38584354 -33.84861942 18.09379214 -32.46337891 14.34960938 C-26.23221356 -1.02969614 -15.268564 -0.52529908 0 0 Z " fill="#1471E7" transform="translate(93.24072265625,145.00341796875)"/>
<path d="M0 0 C3.90469868 0.03826225 7.75867252 -0.14137505 11.65771484 -0.33862305 C29.11052826 -0.66207406 29.11052826 -0.66207406 35.16342163 4.89959717 C39.56458178 10.59063859 42.49776746 16.83453522 45.26176453 23.44247437 C47.57292778 28.65691979 50.53718683 33.47076319 53.47412109 38.35083008 C54.46296938 40.05211581 55.44921087 41.75492357 56.43115234 43.46020508 C56.83954346 44.16628906 57.24793457 44.87237305 57.66870117 45.59985352 C59.46750296 49.2248792 59.46750296 49.2248792 59.66162109 51.60083008 C58.48095703 54.32373047 58.48095703 54.32373047 56.64599609 57.44848633 C56.15030121 58.30463783 56.15030121 58.30463783 55.64459229 59.17808533 C54.57838963 61.01347082 53.4955256 62.83835425 52.41162109 64.66333008 C51.3820076 66.42485809 50.35592501 68.18832858 49.33345032 69.95401001 C48.6161979 71.17388198 47.88344867 72.38475517 47.13664246 73.58676147 C44.9145702 77.20638787 43.17043897 80.73797128 41.6550293 84.71069336 C39.44782345 90.04673709 37.26898376 94.93989568 32.66162109 98.60083008 C24.86748249 101.46421237 16.40653853 100.91447072 8.2355957 100.52856445 C4.33750569 100.35029889 0.45988924 100.3235106 -3.44189453 100.31958008 C-5.92450423 100.27110533 -8.40696532 100.21410905 -10.88916016 100.14770508 C-12.04861649 100.13455261 -13.20807281 100.12140015 -14.40266418 100.10784912 C-22.23117765 99.67035467 -22.23117765 99.67035467 -25.3409729 96.66638184 C-26.89329728 94.37446122 -28.1458583 92.09607802 -29.33837891 89.60083008 C-29.87430664 88.7165332 -30.41023438 87.83223633 -30.96240234 86.92114258 C-31.37006836 86.19668945 -31.77773437 85.47223633 -32.19775391 84.72583008 C-32.66938965 83.8938208 -33.14102539 83.06181152 -33.62695312 82.20458984 C-34.10922363 81.34534912 -34.59149414 80.4861084 -35.08837891 79.60083008 C-38.10652852 74.23050976 -41.12687818 68.88195502 -44.40869141 63.66723633 C-44.88209961 62.90475586 -45.35550781 62.14227539 -45.84326172 61.35668945 C-46.73479514 59.92947345 -47.64229649 58.51206805 -48.56787109 57.10668945 C-49.76806641 55.16723633 -49.76806641 55.16723633 -51.33837891 51.60083008 C-50.28061879 47.30692345 -48.43281358 43.72744367 -46.21337891 39.92504883 C-45.58818359 38.84803711 -44.96298828 37.77102539 -44.31884766 36.66137695 C-43.66529297 35.54827148 -43.01173828 34.43516602 -42.33837891 33.28833008 C-41.71576172 32.21776367 -41.09314453 31.14719727 -40.45166016 30.04418945 C-39.13912419 27.79051462 -37.7962023 25.55432846 -36.42724609 23.33447266 C-34.82905321 20.64624129 -33.68468194 17.97655674 -32.60107422 15.04492188 C-26.37553541 -0.29611174 -15.31304595 -0.25717595 0 0 Z " fill="#1471E7" transform="translate(189.33837890625,91.399169921875)"/>
<path d="M0 0 C1.25280762 0.0724292 2.50561523 0.1448584 3.79638672 0.21948242 C7.65076197 0.4328505 11.46854343 0.44516908 15.328125 0.4296875 C33.9253742 0.70957275 33.9253742 0.70957275 38.48852539 5.33325195 C40.60771895 8.72926028 41.91931219 11.97615691 43.25390625 15.74414062 C44.50665885 17.99378593 45.80277532 20.2198193 47.140625 22.41992188 C48.4095116 24.63103811 49.67644167 26.84327829 50.94140625 29.05664062 C52.2147332 31.28270967 53.48944092 33.50798956 54.765625 35.73242188 C55.35649902 36.76963379 55.94737305 37.8068457 56.55615234 38.87548828 C58.0558725 41.40952794 59.66132137 43.8053416 61.3359375 46.22460938 C63.31401729 49.38625732 63.31401729 49.38625732 62.83203125 52.25585938 C62.31125 53.07699219 61.79046875 53.898125 61.25390625 54.74414062 C60.61891481 55.93561421 59.98922925 57.12992252 59.36328125 58.32617188 C58.58062128 59.73843981 57.79389008 61.14845637 57.00390625 62.55664062 C56.36594116 63.70036133 56.36594116 63.70036133 55.71508789 64.8671875 C50.11222286 74.85693022 44.29875708 84.72637723 38.49389648 94.59960938 C37.70783223 95.95908731 36.95619925 97.33955463 36.25390625 98.74414062 C29.0501082 99.25773342 21.85032613 99.64648531 14.63183308 99.88400841 C11.27467358 99.99824447 7.93955119 100.16399017 4.58764648 100.40380859 C-16.96441385 101.90622622 -16.96441385 101.90622622 -23.16174316 96.72427368 C-27.39490872 91.50436141 -30.06621147 85.63904095 -32.59646606 79.45178223 C-34.11589377 75.87317523 -36.01507387 72.79253082 -38.11328125 69.52148438 C-38.70753906 68.53212891 -39.30179688 67.54277344 -39.9140625 66.5234375 C-41.09591452 64.55593786 -42.2894322 62.59541623 -43.4921875 60.640625 C-44.06839844 59.67318359 -44.64460938 58.70574219 -45.23828125 57.70898438 C-45.7472998 56.86972412 -46.25631836 56.03046387 -46.78076172 55.16577148 C-47.97594709 52.16753079 -47.73306862 50.78708613 -46.74609375 47.74414062 C-45.75317383 45.62963867 -45.75317383 45.62963867 -44.515625 43.50585938 C-44.06896988 42.7356546 -43.62231476 41.96544983 -43.16212463 41.17190552 C-42.11402357 39.38081152 -41.05322391 37.59707235 -39.978302 35.82194519 C-36.96632169 30.79821624 -34.28568951 25.83762543 -32.01586914 20.43408203 C-24.74335615 4.14622271 -17.85657967 -0.46004345 0 0 Z " fill="#1471E7" transform="translate(89.74609375,36.255859375)"/>
</svg>
